<svg width="663" height="803" viewBox="0 0 663 803" fill="none" xmlns="http://www.w3.org/2000/svg">
<path d="M589 517.761C589 651.69 424.213 583.761 282 583.761C139.787 583.761 0.500031 691.69 0.500031 557.761C0.500031 423.831 7.28665 188.261 149.5 188.261C291.713 188.261 589 383.831 589 517.761Z" fill="#080969"/>
<path d="M234.726 476.074C417.035 467.053 409.307 437.554 435.19 504.007C461.074 570.46 660.453 529.745 560.235 568.78C685.117 777.235 145.722 651.052 119.839 584.599C93.955 518.146 134.508 515.109 234.726 476.074Z" fill="#080969"/>
<path d="M544.444 599.688C388.218 567.764 392.408 509.266 368.943 423.5C345.479 337.734 234.21 262.819 319.443 239.5C404.677 216.181 613.979 242.234 637.443 328C660.908 413.766 629.677 576.369 544.444 599.688Z" fill="#080969"/>
<path d="M421.5 385C265.274 353.075 272.464 390.266 248.999 304.5C225.535 218.734 55.2666 220.819 140.5 197.5C29.4152 -81.7799 494.535 196.014 517.999 281.78C541.464 367.546 506.733 361.681 421.5 385Z" fill="#080969"/>
<path d="M495.133 344.277C495.133 447.544 604.526 582.891 344.78 625C-174.711 565.848 114.006 437.518 114.006 334.251C114.006 230.983 168.617 226 319.243 226C469.87 226 495.133 241.009 495.133 344.277Z" fill="#11137A"/>
</svg>
