<svg width="1440" height="630" viewBox="0 0 1440 630" fill="none" xmlns="http://www.w3.org/2000/svg">
<ellipse cx="720" cy="187.5" rx="769" ry="187.5" fill="#080969"/>
<path d="M549.138 172.091C549.138 196.341 509.26 216 460.069 216C410.878 216 371 196.341 371 172.091C371 147.841 410.878 128.183 460.069 128.183C509.26 128.183 704.275 17.9444 549.138 172.091Z" fill="#000057"/>
<path d="M0 251H1440V630H0V251Z" fill="#080969"/>
<path d="M424 188.579C424 220.888 358.493 251.079 263.5 251.079C168.507 251.079 80 220.888 80 188.579C80 156.27 350.007 89.579 445 89.579C822.5 41.5791 424 156.27 424 188.579Z" fill="#11137A"/>
<path d="M1015 33C1015 60.6142 859.304 143.224 798 143.224C736.696 143.224 685.5 113.614 685.5 86C685.5 58.3858 765.696 54.7237 827 54.7237C888.304 54.7237 1015 5.38577 1015 33Z" fill="#000057"/>
<path d="M1016.5 34.5C952 57.9999 795.436 115.5 756.5 115.5C717.564 115.5 686 100.725 686 82.5001C686 64.2747 717.564 49.5001 756.5 49.5001C795.436 49.5001 1055 2.99995 1016.5 34.5Z" fill="#11137A"/>
</svg>
