<svg width="483" height="340" viewBox="0 0 483 340" fill="none" xmlns="http://www.w3.org/2000/svg">
<g filter="url(#filter0_d_45_4)">
<rect x="4" width="475" height="266" rx="30" fill="#191D7A"/>
<rect x="204" y="242" width="70" height="78" fill="#00004E"/>
<rect x="11" y="7" width="459" height="253" rx="30" fill="#00004E"/>
<rect x="157" y="319" width="173" height="13" fill="#00004E"/>
<path d="M22 52C22 35.4315 35.4315 22 52 22H423C439.569 22 453 35.4315 453 52V212C453 228.569 439.569 242 423 242H52C35.4315 242 22 228.569 22 212V52Z" fill="#11137A"/>
<path d="M154.8 111.16L103.68 138.52L154.8 166.42L150.12 174.88L85.5 138.7L150.12 102.52L154.8 111.16ZM217.198 190L261.838 67.24H272.998L228.358 190H217.198ZM339.888 102.52L404.508 138.7L339.888 174.88L335.208 166.42L386.328 138.52L335.208 111.16L339.888 102.52Z" fill="url(#paint0_linear_45_4)"/>
</g>
<defs>
<filter id="filter0_d_45_4" x="0" y="0" width="483" height="340" filterUnits="userSpaceOnUse" color-interpolation-filters="sRGB">
<feFlood flood-opacity="0" result="BackgroundImageFix"/>
<feColorMatrix in="SourceAlpha" type="matrix" values="0 0 0 0 0 0 0 0 0 0 0 0 0 0 0 0 0 0 127 0" result="hardAlpha"/>
<feOffset dy="4"/>
<feGaussianBlur stdDeviation="2"/>
<feComposite in2="hardAlpha" operator="out"/>
<feColorMatrix type="matrix" values="0 0 0 0 0 0 0 0 0 0 0 0 0 0 0 0 0 0 0.25 0"/>
<feBlend mode="normal" in2="BackgroundImageFix" result="effect1_dropShadow_45_4"/>
<feBlend mode="normal" in="SourceGraphic" in2="effect1_dropShadow_45_4" result="shape"/>
</filter>
<linearGradient id="paint0_linear_45_4" x1="267" y1="2" x2="267" y2="244" gradientUnits="userSpaceOnUse">
<stop stop-color="#D7D3FF"/>
<stop offset="1" stop-color="white" stop-opacity="0"/>
</linearGradient>
</defs>
</svg>
